<?xml version="1.0" encoding="UTF-8"?>
<svg id="_圖層_1" data-name="圖層_1" xmlns="http://www.w3.org/2000/svg" version="1.1" viewBox="0 0 1280 1024">
  <!-- Generator: Adobe Illustrator 29.5.0, SVG Export Plug-In . SVG Version: 2.1.0 Build 137)  -->
  <defs>
    <style>
      .st0 {
        fill: #e51577;
      }
    </style>
  </defs>
  <path class="st0" d="M2736-892.96c162.8,0,325.5,16.4,483.58,48.75,154.06,31.53,305.6,78.57,450.41,139.81,142.18,60.14,279.31,134.57,407.59,221.23,127.06,85.84,246.54,184.42,355.12,293,108.58,108.58,207.16,228.06,293,355.12,86.66,128.28,161.09,265.41,221.23,407.59,61.25,144.81,108.29,296.35,139.82,450.41,32.35,158.08,48.75,320.78,48.75,483.58s-16.4,325.5-48.75,483.58c-31.53,154.06-78.57,305.6-139.82,450.41-60.14,142.18-134.57,279.31-221.23,407.59-85.84,127.06-184.42,246.54-293,355.12-108.58,108.58-228.06,207.16-355.12,293-128.28,86.66-265.41,161.09-407.59,221.23-144.81,61.25-296.35,108.29-450.41,139.81-158.08,32.35-320.78,48.75-483.58,48.75s-325.5-16.4-483.58-48.75c-154.06-31.53-305.6-78.57-450.41-139.81-142.18-60.14-279.31-134.57-407.59-221.23-127.06-85.84-246.54-184.42-355.12-293-108.58-108.58-207.16-228.06-293-355.12-86.66-128.28-161.09-265.41-221.23-407.59-61.25-144.81-108.29-296.35-139.81-450.41-32.35-158.08-48.75-320.78-48.75-483.58s16.4-325.5,48.75-483.58c31.53-154.06,78.57-305.6,139.81-450.41,60.14-142.18,134.57-279.31,221.23-407.59,85.84-127.06,184.42-246.54,293-355.12,108.58-108.58,228.06-207.16,355.12-293,128.28-86.66,265.41-161.09,407.59-221.23,144.81-61.25,296.35-108.29,450.41-139.81,158.08-32.35,320.78-48.75,483.58-48.75M2736-893.46c-1325.48,0-2400,1074.52-2400,2400s1074.52,2400,2400,2400,2400-1074.52,2400-2400S4061.48-893.46,2736-893.46h0Z"/>
  <path class="st0" d="M2141.2-19.79c138.38,0,276.67,13.94,411.03,41.44,130.95,26.8,259.75,66.78,382.83,118.84,120.85,51.11,237.41,114.38,346.44,188.04,108,72.96,209.55,156.75,301.84,249.04,92.29,92.29,176.08,193.85,249.04,301.84,73.66,109.03,136.93,225.59,188.04,346.44,52.06,123.08,92.04,251.89,118.84,382.83,27.49,134.36,41.44,272.65,41.44,411.03s-13.94,276.67-41.44,411.03c-26.8,130.95-66.78,259.75-118.84,382.83-51.11,120.85-114.38,237.41-188.04,346.44-72.96,108-156.75,209.55-249.04,301.84-92.29,92.29-193.85,176.08-301.84,249.04-109.03,73.66-225.59,136.93-346.44,188.04-123.08,52.06-251.89,92.04-382.83,118.84-134.36,27.49-272.65,41.44-411.03,41.44s-276.67-13.94-411.03-41.44c-130.95-26.8-259.75-66.78-382.83-118.84-120.85-51.11-237.41-114.38-346.44-188.04-107.99-72.96-209.55-156.75-301.84-249.04-92.29-92.29-176.08-193.85-249.04-301.84-73.66-109.03-136.93-225.59-188.04-346.44-52.06-123.08-92.04-251.89-118.84-382.83-27.49-134.36-41.44-272.65-41.44-411.03s13.94-276.67,41.44-411.03c26.8-130.95,66.78-259.75,118.84-382.83,51.11-120.85,114.38-237.41,188.04-346.44,72.96-107.99,156.75-209.55,249.04-301.84,92.29-92.29,193.85-176.08,301.84-249.04,109.03-73.66,225.59-136.93,346.44-188.04,123.08-52.06,251.89-92.04,382.83-118.84,134.36-27.49,272.65-41.44,411.03-41.44M2141.2-20.29C1014.54-20.29,101.2,893.05,101.2,2019.71s913.34,2040,2040,2040,2040-913.34,2040-2040S3267.86-20.29,2141.2-20.29h0Z"/>
</svg>